<mxfile host="Electron" modified="2024-02-22T10:39:40.063Z" agent="Mozilla/5.0 (Windows NT 10.0; Win64; x64) AppleWebKit/537.36 (KHTML, like Gecko) draw.io/23.1.5 Chrome/120.0.6099.109 Electron/28.1.0 Safari/537.36" etag="ZXR8_RCegAqw4iAJ0c3j" version="23.1.5" type="device">
  <diagram name="ページ1" id="B6GoNxiE4jd5mZQAr_sY">
    <mxGraphModel dx="1247" dy="248" grid="1" gridSize="10" guides="1" tooltips="1" connect="1" arrows="1" fold="1" page="1" pageScale="1" pageWidth="827" pageHeight="1169" math="0" shadow="0">
      <root>
        <mxCell id="0" />
        <mxCell id="1" parent="0" />
        <mxCell id="pZNiaZCketRprYXRvnDt-11" value="" style="rounded=1;whiteSpace=wrap;html=1;fillColor=#dae8fc;strokeColor=#6c8ebf;" vertex="1" parent="1">
          <mxGeometry x="590" y="585" width="210" height="155" as="geometry" />
        </mxCell>
        <mxCell id="pZNiaZCketRprYXRvnDt-8" value="" style="rounded=1;whiteSpace=wrap;html=1;fillColor=#dae8fc;strokeColor=#e51400;" vertex="1" parent="1">
          <mxGeometry x="590" y="170" width="210" height="391" as="geometry" />
        </mxCell>
        <mxCell id="pZNiaZCketRprYXRvnDt-7" value="" style="rounded=1;whiteSpace=wrap;html=1;fillColor=#d5e8d4;strokeColor=#82b366;movable=1;resizable=1;rotatable=1;deletable=1;editable=1;locked=0;connectable=1;" vertex="1" parent="1">
          <mxGeometry x="15" y="390" width="210" height="470" as="geometry" />
        </mxCell>
        <mxCell id="pZNiaZCketRprYXRvnDt-1" value="&lt;font style=&quot;font-size: 21px;&quot;&gt;RasPiPico&lt;br&gt;MPU&lt;br&gt;&lt;br&gt;&lt;br&gt;&lt;br&gt;&lt;br&gt;&lt;br&gt;&lt;br&gt;&lt;br&gt;&lt;br&gt;&lt;br&gt;&lt;br&gt;&lt;br&gt;&lt;br&gt;&lt;br&gt;&lt;br&gt;&lt;br&gt;&lt;br&gt;&lt;br&gt;&lt;br&gt;&lt;/font&gt;" style="rounded=1;whiteSpace=wrap;html=1;" vertex="1" parent="1">
          <mxGeometry x="330" y="60" width="160" height="525" as="geometry" />
        </mxCell>
        <mxCell id="pZNiaZCketRprYXRvnDt-2" value="BMP180&lt;br&gt;0x77" style="rounded=1;whiteSpace=wrap;html=1;strokeColor=#1ba1e2;" vertex="1" parent="1">
          <mxGeometry x="55" y="455" width="120" height="60" as="geometry" />
        </mxCell>
        <mxCell id="pZNiaZCketRprYXRvnDt-3" value="MPU6050&lt;br&gt;0x69(AD0=HIGH)" style="rounded=1;whiteSpace=wrap;html=1;strokeColor=#1ba1e2;" vertex="1" parent="1">
          <mxGeometry x="55" y="550" width="120" height="60" as="geometry" />
        </mxCell>
        <mxCell id="pZNiaZCketRprYXRvnDt-4" value="SSD1306" style="rounded=1;whiteSpace=wrap;html=1;strokeColor=#1ba1e2;" vertex="1" parent="1">
          <mxGeometry x="630" y="210" width="120" height="60" as="geometry" />
        </mxCell>
        <mxCell id="pZNiaZCketRprYXRvnDt-5" value="SD" style="rounded=1;whiteSpace=wrap;html=1;strokeColor=#60a917;" vertex="1" parent="1">
          <mxGeometry x="630" y="649" width="120" height="60" as="geometry" />
        </mxCell>
        <mxCell id="pZNiaZCketRprYXRvnDt-6" value="DS1307&lt;br&gt;0x68" style="rounded=1;whiteSpace=wrap;html=1;strokeColor=#1ba1e2;" vertex="1" parent="1">
          <mxGeometry x="55" y="645" width="120" height="60" as="geometry" />
        </mxCell>
        <mxCell id="pZNiaZCketRprYXRvnDt-9" value="Sensor" style="text;html=1;align=center;verticalAlign=middle;resizable=0;points=[];autosize=1;strokeColor=none;fillColor=none;fontSize=21;" vertex="1" parent="1">
          <mxGeometry x="75" y="395" width="90" height="40" as="geometry" />
        </mxCell>
        <mxCell id="pZNiaZCketRprYXRvnDt-10" value="Display" style="text;html=1;align=center;verticalAlign=middle;resizable=0;points=[];autosize=1;strokeColor=none;fillColor=none;fontSize=21;" vertex="1" parent="1">
          <mxGeometry x="645" y="175" width="90" height="40" as="geometry" />
        </mxCell>
        <mxCell id="pZNiaZCketRprYXRvnDt-12" value="Save" style="text;html=1;align=center;verticalAlign=middle;resizable=0;points=[];autosize=1;strokeColor=none;fillColor=none;fontSize=20;" vertex="1" parent="1">
          <mxGeometry x="655" y="595" width="70" height="40" as="geometry" />
        </mxCell>
        <mxCell id="pZNiaZCketRprYXRvnDt-13" value="5v LED" style="rounded=1;whiteSpace=wrap;html=1;strokeColor=#6d8764;" vertex="1" parent="1">
          <mxGeometry x="630" y="280" width="120" height="60" as="geometry" />
        </mxCell>
        <mxCell id="pZNiaZCketRprYXRvnDt-14" value="Servo" style="rounded=1;whiteSpace=wrap;html=1;strokeColor=#6d8764;" vertex="1" parent="1">
          <mxGeometry x="630" y="490" width="120" height="60" as="geometry" />
        </mxCell>
        <mxCell id="pZNiaZCketRprYXRvnDt-15" value="" style="rounded=1;whiteSpace=wrap;html=1;fillColor=#cdeb8b;strokeColor=#e51400;movable=1;resizable=1;rotatable=1;deletable=1;editable=1;locked=0;connectable=1;" vertex="1" parent="1">
          <mxGeometry x="15" y="20" width="210" height="310" as="geometry" />
        </mxCell>
        <mxCell id="pZNiaZCketRprYXRvnDt-16" value="PWR supply" style="text;html=1;align=center;verticalAlign=middle;resizable=0;points=[];autosize=1;strokeColor=none;fillColor=none;fontSize=21;" vertex="1" parent="1">
          <mxGeometry x="50" y="20" width="140" height="40" as="geometry" />
        </mxCell>
        <mxCell id="pZNiaZCketRprYXRvnDt-17" value="LiPo 3.7v 2000mAh" style="rounded=1;whiteSpace=wrap;html=1;strokeColor=#e51400;" vertex="1" parent="1">
          <mxGeometry x="55" y="80" width="120" height="60" as="geometry" />
        </mxCell>
        <mxCell id="pZNiaZCketRprYXRvnDt-18" value="5v DCDC" style="rounded=1;whiteSpace=wrap;html=1;strokeColor=#e51400;" vertex="1" parent="1">
          <mxGeometry x="55" y="160" width="120" height="60" as="geometry" />
        </mxCell>
        <mxCell id="pZNiaZCketRprYXRvnDt-20" value="3.3v DCDC" style="rounded=1;whiteSpace=wrap;html=1;strokeColor=#e51400;" vertex="1" parent="1">
          <mxGeometry x="55" y="240" width="120" height="60" as="geometry" />
        </mxCell>
        <mxCell id="pZNiaZCketRprYXRvnDt-23" value="&lt;font style=&quot;font-size: 20px;&quot;&gt;I2C&lt;/font&gt;" style="rounded=1;whiteSpace=wrap;html=1;fillColor=#1ba1e2;fontColor=#ffffff;strokeColor=#006EAF;" vertex="1" parent="1">
          <mxGeometry x="350" y="312" width="120" height="60" as="geometry" />
        </mxCell>
        <mxCell id="pZNiaZCketRprYXRvnDt-46" value="" style="endArrow=classic;startArrow=classic;html=1;rounded=0;edgeStyle=orthogonalEdgeStyle;exitX=0.997;exitY=0.451;exitDx=0;exitDy=0;exitPerimeter=0;entryX=0;entryY=0.5;entryDx=0;entryDy=0;strokeColor=#1ba1e2;" edge="1" parent="1" source="pZNiaZCketRprYXRvnDt-3" target="pZNiaZCketRprYXRvnDt-23">
          <mxGeometry width="50" height="50" relative="1" as="geometry">
            <mxPoint x="210" y="620" as="sourcePoint" />
            <mxPoint x="260" y="480" as="targetPoint" />
          </mxGeometry>
        </mxCell>
        <mxCell id="pZNiaZCketRprYXRvnDt-49" value="NEO6M" style="rounded=1;whiteSpace=wrap;html=1;strokeColor=#6a00ff;" vertex="1" parent="1">
          <mxGeometry x="55" y="740" width="120" height="60" as="geometry" />
        </mxCell>
        <mxCell id="pZNiaZCketRprYXRvnDt-50" value="&lt;font style=&quot;font-size: 20px;&quot;&gt;UART&lt;/font&gt;" style="rounded=1;whiteSpace=wrap;html=1;fillColor=#6a00ff;fontColor=#ffffff;strokeColor=#3700CC;" vertex="1" parent="1">
          <mxGeometry x="350" y="403" width="120" height="60" as="geometry" />
        </mxCell>
        <mxCell id="pZNiaZCketRprYXRvnDt-51" value="" style="endArrow=classic;startArrow=classic;html=1;rounded=0;edgeStyle=orthogonalEdgeStyle;exitX=1;exitY=0.5;exitDx=0;exitDy=0;entryX=0;entryY=0.5;entryDx=0;entryDy=0;strokeColor=#6a00ff;" edge="1" parent="1" source="pZNiaZCketRprYXRvnDt-49" target="pZNiaZCketRprYXRvnDt-50">
          <mxGeometry width="50" height="50" relative="1" as="geometry">
            <mxPoint x="210" y="410" as="sourcePoint" />
            <mxPoint x="260" y="360" as="targetPoint" />
            <Array as="points">
              <mxPoint x="300" y="770" />
              <mxPoint x="300" y="433" />
            </Array>
          </mxGeometry>
        </mxCell>
        <mxCell id="pZNiaZCketRprYXRvnDt-52" value="&lt;font style=&quot;font-size: 20px;&quot;&gt;SPI&lt;/font&gt;" style="rounded=1;whiteSpace=wrap;html=1;fillColor=#60a917;fontColor=#ffffff;strokeColor=#2D7600;" vertex="1" parent="1">
          <mxGeometry x="350" y="494" width="120" height="60" as="geometry" />
        </mxCell>
        <mxCell id="pZNiaZCketRprYXRvnDt-53" value="" style="endArrow=classic;startArrow=classic;html=1;rounded=0;exitX=1;exitY=0.5;exitDx=0;exitDy=0;edgeStyle=orthogonalEdgeStyle;entryX=0;entryY=0.5;entryDx=0;entryDy=0;strokeColor=#60a917;" edge="1" parent="1" source="pZNiaZCketRprYXRvnDt-52" target="pZNiaZCketRprYXRvnDt-5">
          <mxGeometry width="50" height="50" relative="1" as="geometry">
            <mxPoint x="590" y="550" as="sourcePoint" />
            <mxPoint x="640" y="500" as="targetPoint" />
          </mxGeometry>
        </mxCell>
        <mxCell id="pZNiaZCketRprYXRvnDt-54" value="&lt;span style=&quot;font-size: 20px;&quot;&gt;PWR&lt;/span&gt;" style="rounded=1;whiteSpace=wrap;html=1;fillColor=#e51400;fontColor=#ffffff;strokeColor=#B20000;" vertex="1" parent="1">
          <mxGeometry x="350" y="130" width="120" height="60" as="geometry" />
        </mxCell>
        <mxCell id="pZNiaZCketRprYXRvnDt-56" value="" style="endArrow=classic;html=1;rounded=0;exitX=0.5;exitY=1;exitDx=0;exitDy=0;entryX=0.5;entryY=0;entryDx=0;entryDy=0;strokeColor=#e51400;" edge="1" parent="1" source="pZNiaZCketRprYXRvnDt-17" target="pZNiaZCketRprYXRvnDt-18">
          <mxGeometry width="50" height="50" relative="1" as="geometry">
            <mxPoint x="300" y="260" as="sourcePoint" />
            <mxPoint x="350" y="210" as="targetPoint" />
          </mxGeometry>
        </mxCell>
        <mxCell id="pZNiaZCketRprYXRvnDt-59" value="" style="endArrow=classic;html=1;rounded=0;exitX=0.5;exitY=1;exitDx=0;exitDy=0;entryX=0.5;entryY=0;entryDx=0;entryDy=0;strokeColor=#e51400;" edge="1" parent="1" source="pZNiaZCketRprYXRvnDt-18" target="pZNiaZCketRprYXRvnDt-20">
          <mxGeometry width="50" height="50" relative="1" as="geometry">
            <mxPoint x="135" y="160" as="sourcePoint" />
            <mxPoint x="135" y="180" as="targetPoint" />
          </mxGeometry>
        </mxCell>
        <mxCell id="pZNiaZCketRprYXRvnDt-61" value="" style="endArrow=classic;html=1;rounded=0;exitX=1;exitY=0.5;exitDx=0;exitDy=0;entryX=0;entryY=0.5;entryDx=0;entryDy=0;strokeColor=#e51400;edgeStyle=orthogonalEdgeStyle;" edge="1" parent="1" source="pZNiaZCketRprYXRvnDt-18" target="pZNiaZCketRprYXRvnDt-54">
          <mxGeometry width="50" height="50" relative="1" as="geometry">
            <mxPoint x="125" y="230" as="sourcePoint" />
            <mxPoint x="125" y="250" as="targetPoint" />
            <Array as="points">
              <mxPoint x="290" y="190" />
              <mxPoint x="290" y="160" />
            </Array>
          </mxGeometry>
        </mxCell>
        <mxCell id="pZNiaZCketRprYXRvnDt-62" value="&lt;span style=&quot;font-size: 20px;&quot;&gt;Digital&lt;br&gt;Analog&lt;br&gt;&lt;/span&gt;" style="rounded=1;whiteSpace=wrap;html=1;fillColor=#6d8764;fontColor=#ffffff;strokeColor=#3A5431;" vertex="1" parent="1">
          <mxGeometry x="350" y="221" width="120" height="60" as="geometry" />
        </mxCell>
        <mxCell id="pZNiaZCketRprYXRvnDt-66" value="" style="endArrow=classic;html=1;rounded=0;exitX=0.5;exitY=1;exitDx=0;exitDy=0;entryX=0;entryY=0.5;entryDx=0;entryDy=0;strokeColor=#e51400;edgeStyle=orthogonalEdgeStyle;" edge="1" parent="1" source="pZNiaZCketRprYXRvnDt-20" target="pZNiaZCketRprYXRvnDt-2">
          <mxGeometry width="50" height="50" relative="1" as="geometry">
            <mxPoint x="205" y="220" as="sourcePoint" />
            <mxPoint x="380" y="190" as="targetPoint" />
            <Array as="points">
              <mxPoint x="115" y="370" />
              <mxPoint x="30" y="370" />
              <mxPoint x="30" y="485" />
            </Array>
          </mxGeometry>
        </mxCell>
        <mxCell id="pZNiaZCketRprYXRvnDt-67" value="" style="endArrow=classic;html=1;rounded=0;exitX=0.5;exitY=1;exitDx=0;exitDy=0;strokeColor=#e51400;edgeStyle=orthogonalEdgeStyle;entryX=0;entryY=0.5;entryDx=0;entryDy=0;movable=0;resizable=0;rotatable=0;deletable=0;editable=0;locked=1;connectable=0;" edge="1" parent="1" source="pZNiaZCketRprYXRvnDt-20" target="pZNiaZCketRprYXRvnDt-49">
          <mxGeometry width="50" height="50" relative="1" as="geometry">
            <mxPoint x="125" y="310" as="sourcePoint" />
            <mxPoint y="680.4848780776515" as="targetPoint" />
            <Array as="points">
              <mxPoint x="115" y="350" />
              <mxPoint y="350" />
              <mxPoint y="770" />
            </Array>
          </mxGeometry>
        </mxCell>
        <mxCell id="pZNiaZCketRprYXRvnDt-70" value="" style="endArrow=classic;html=1;rounded=0;exitX=0.5;exitY=1;exitDx=0;exitDy=0;entryX=0;entryY=0.5;entryDx=0;entryDy=0;strokeColor=#e51400;edgeStyle=orthogonalEdgeStyle;" edge="1" parent="1" source="pZNiaZCketRprYXRvnDt-20" target="pZNiaZCketRprYXRvnDt-3">
          <mxGeometry width="50" height="50" relative="1" as="geometry">
            <mxPoint x="145" y="330" as="sourcePoint" />
            <mxPoint x="85" y="515" as="targetPoint" />
            <Array as="points">
              <mxPoint x="115" y="360" />
              <mxPoint x="20" y="360" />
              <mxPoint x="20" y="580" />
            </Array>
          </mxGeometry>
        </mxCell>
        <mxCell id="pZNiaZCketRprYXRvnDt-72" value="" style="endArrow=classic;startArrow=classic;html=1;rounded=0;edgeStyle=orthogonalEdgeStyle;exitX=1;exitY=0.5;exitDx=0;exitDy=0;entryX=0;entryY=0.5;entryDx=0;entryDy=0;strokeColor=#1ba1e2;" edge="1" parent="1" source="pZNiaZCketRprYXRvnDt-6" target="pZNiaZCketRprYXRvnDt-23">
          <mxGeometry width="50" height="50" relative="1" as="geometry">
            <mxPoint x="185" y="587" as="sourcePoint" />
            <mxPoint x="360" y="390" as="targetPoint" />
          </mxGeometry>
        </mxCell>
        <mxCell id="pZNiaZCketRprYXRvnDt-73" value="" style="endArrow=classic;startArrow=classic;html=1;rounded=0;edgeStyle=orthogonalEdgeStyle;exitX=1;exitY=0.5;exitDx=0;exitDy=0;entryX=0;entryY=0.5;entryDx=0;entryDy=0;strokeColor=#1ba1e2;" edge="1" parent="1" source="pZNiaZCketRprYXRvnDt-2" target="pZNiaZCketRprYXRvnDt-23">
          <mxGeometry width="50" height="50" relative="1" as="geometry">
            <mxPoint x="190" y="487" as="sourcePoint" />
            <mxPoint x="365" y="290" as="targetPoint" />
          </mxGeometry>
        </mxCell>
        <mxCell id="pZNiaZCketRprYXRvnDt-74" value="" style="endArrow=classic;startArrow=classic;html=1;rounded=0;edgeStyle=orthogonalEdgeStyle;exitX=1;exitY=0.5;exitDx=0;exitDy=0;entryX=0;entryY=0.5;entryDx=0;entryDy=0;strokeColor=#1ba1e2;" edge="1" parent="1" source="pZNiaZCketRprYXRvnDt-23" target="pZNiaZCketRprYXRvnDt-4">
          <mxGeometry width="50" height="50" relative="1" as="geometry">
            <mxPoint x="490" y="367" as="sourcePoint" />
            <mxPoint x="665" y="170" as="targetPoint" />
            <Array as="points">
              <mxPoint x="530" y="342" />
              <mxPoint x="530" y="240" />
            </Array>
          </mxGeometry>
        </mxCell>
        <mxCell id="pZNiaZCketRprYXRvnDt-79" value="" style="endArrow=classic;html=1;rounded=0;exitX=1;exitY=0.5;exitDx=0;exitDy=0;edgeStyle=orthogonalEdgeStyle;entryX=0;entryY=0.5;entryDx=0;entryDy=0;strokeColor=#6d8764;" edge="1" parent="1" source="pZNiaZCketRprYXRvnDt-62" target="pZNiaZCketRprYXRvnDt-14">
          <mxGeometry width="50" height="50" relative="1" as="geometry">
            <mxPoint x="484.5" y="322" as="sourcePoint" />
            <mxPoint x="644.5" y="350" as="targetPoint" />
            <Array as="points">
              <mxPoint x="470" y="250" />
              <mxPoint x="540" y="250" />
              <mxPoint x="540" y="520" />
            </Array>
          </mxGeometry>
        </mxCell>
        <mxCell id="pZNiaZCketRprYXRvnDt-81" value="MPU LED" style="rounded=1;whiteSpace=wrap;html=1;strokeColor=#6d8764;" vertex="1" parent="1">
          <mxGeometry x="630" y="420" width="120" height="60" as="geometry" />
        </mxCell>
        <mxCell id="pZNiaZCketRprYXRvnDt-82" value="3.3v LED" style="rounded=1;whiteSpace=wrap;html=1;strokeColor=#6d8764;" vertex="1" parent="1">
          <mxGeometry x="630" y="350" width="120" height="60" as="geometry" />
        </mxCell>
        <mxCell id="pZNiaZCketRprYXRvnDt-83" value="" style="endArrow=classic;html=1;rounded=0;exitX=1;exitY=0.5;exitDx=0;exitDy=0;edgeStyle=orthogonalEdgeStyle;entryX=0;entryY=0.5;entryDx=0;entryDy=0;strokeColor=#6d8764;" edge="1" parent="1" source="pZNiaZCketRprYXRvnDt-62" target="pZNiaZCketRprYXRvnDt-81">
          <mxGeometry width="50" height="50" relative="1" as="geometry">
            <mxPoint x="480" y="311" as="sourcePoint" />
            <mxPoint x="640" y="530" as="targetPoint" />
            <Array as="points">
              <mxPoint x="470" y="250" />
              <mxPoint x="540" y="250" />
              <mxPoint x="540" y="450" />
            </Array>
          </mxGeometry>
        </mxCell>
        <mxCell id="pZNiaZCketRprYXRvnDt-87" value="" style="endArrow=classic;html=1;rounded=0;exitX=1;exitY=0.5;exitDx=0;exitDy=0;strokeColor=#e51400;edgeStyle=orthogonalEdgeStyle;entryX=0;entryY=0.5;entryDx=0;entryDy=0;" edge="1" parent="1" source="pZNiaZCketRprYXRvnDt-18" target="pZNiaZCketRprYXRvnDt-13">
          <mxGeometry width="50" height="50" relative="1" as="geometry">
            <mxPoint x="200" y="219.5" as="sourcePoint" />
            <mxPoint x="590" y="70" as="targetPoint" />
            <Array as="points">
              <mxPoint x="290" y="190" />
              <mxPoint x="290" y="20" />
              <mxPoint x="610" y="20" />
              <mxPoint x="610" y="310" />
            </Array>
          </mxGeometry>
        </mxCell>
        <mxCell id="pZNiaZCketRprYXRvnDt-88" value="" style="endArrow=classic;html=1;rounded=0;exitX=1;exitY=0.5;exitDx=0;exitDy=0;strokeColor=#e51400;edgeStyle=orthogonalEdgeStyle;entryX=0;entryY=0.5;entryDx=0;entryDy=0;" edge="1" parent="1" source="pZNiaZCketRprYXRvnDt-20" target="pZNiaZCketRprYXRvnDt-82">
          <mxGeometry width="50" height="50" relative="1" as="geometry">
            <mxPoint x="195" y="210" as="sourcePoint" />
            <mxPoint x="560" y="370" as="targetPoint" />
            <Array as="points">
              <mxPoint x="310" y="270" />
              <mxPoint x="310" y="40" />
              <mxPoint x="580" y="40" />
              <mxPoint x="580" y="380" />
            </Array>
          </mxGeometry>
        </mxCell>
        <mxCell id="pZNiaZCketRprYXRvnDt-89" value="" style="endArrow=classic;html=1;rounded=0;edgeStyle=orthogonalEdgeStyle;entryX=0;entryY=0.25;entryDx=0;entryDy=0;strokeColor=#e51400;" edge="1" parent="1" target="pZNiaZCketRprYXRvnDt-81">
          <mxGeometry width="50" height="50" relative="1" as="geometry">
            <mxPoint x="580" y="380" as="sourcePoint" />
            <mxPoint x="530" y="340" as="targetPoint" />
            <Array as="points">
              <mxPoint x="580" y="435" />
            </Array>
          </mxGeometry>
        </mxCell>
        <mxCell id="pZNiaZCketRprYXRvnDt-90" value="" style="endArrow=classic;html=1;rounded=0;edgeStyle=orthogonalEdgeStyle;entryX=0;entryY=0.25;entryDx=0;entryDy=0;strokeColor=#e51400;" edge="1" parent="1">
          <mxGeometry width="50" height="50" relative="1" as="geometry">
            <mxPoint x="580" y="430" as="sourcePoint" />
            <mxPoint x="630" y="510" as="targetPoint" />
            <Array as="points">
              <mxPoint x="580" y="510" />
            </Array>
          </mxGeometry>
        </mxCell>
        <mxCell id="pZNiaZCketRprYXRvnDt-91" value="" style="endArrow=classic;html=1;rounded=0;edgeStyle=orthogonalEdgeStyle;entryX=0;entryY=0.25;entryDx=0;entryDy=0;strokeColor=#e51400;" edge="1" parent="1">
          <mxGeometry width="50" height="50" relative="1" as="geometry">
            <mxPoint x="580" y="170" as="sourcePoint" />
            <mxPoint x="630" y="225" as="targetPoint" />
            <Array as="points">
              <mxPoint x="580" y="225" />
            </Array>
          </mxGeometry>
        </mxCell>
        <mxCell id="pZNiaZCketRprYXRvnDt-92" value="" style="endArrow=classic;html=1;rounded=0;edgeStyle=orthogonalEdgeStyle;entryX=0;entryY=0.25;entryDx=0;entryDy=0;strokeColor=#e51400;" edge="1" parent="1">
          <mxGeometry width="50" height="50" relative="1" as="geometry">
            <mxPoint x="590" y="510" as="sourcePoint" />
            <mxPoint x="630" y="665" as="targetPoint" />
            <Array as="points">
              <mxPoint x="580" y="665" />
            </Array>
          </mxGeometry>
        </mxCell>
        <mxCell id="pZNiaZCketRprYXRvnDt-93" value="" style="endArrow=classic;html=1;rounded=0;exitX=0;exitY=0.5;exitDx=0;exitDy=0;entryX=0;entryY=0.5;entryDx=0;entryDy=0;strokeColor=#e51400;edgeStyle=orthogonalEdgeStyle;" edge="1" parent="1" source="pZNiaZCketRprYXRvnDt-18">
          <mxGeometry width="50" height="50" relative="1" as="geometry">
            <mxPoint x="114.97" y="395" as="sourcePoint" />
            <mxPoint x="54.97" y="675" as="targetPoint" />
            <Array as="points">
              <mxPoint x="10" y="190" />
              <mxPoint x="10" y="675" />
            </Array>
          </mxGeometry>
        </mxCell>
      </root>
    </mxGraphModel>
  </diagram>
</mxfile>
